<svg preserveAspectRatio="none" overflow="visible" style="display: block;" width="16" height="16" viewBox="0 0 16 16" fill="none" xmlns="http://www.w3.org/2000/svg">
<g id="Share" clip-path="url(#clip0_0_59)">
<g id="Vector">
</g>
<path id="Vector_2" d="M12 1.77669C12.8618 1.77669 13.5566 2.47151 13.5566 3.33333C13.5566 4.19515 12.8618 4.88997 12 4.88997C11.5934 4.88997 11.2257 4.7313 10.9414 4.4681L10.7002 4.24544L10.417 4.41048L5.7168 7.15072L5.43848 7.31283L5.50684 7.62728C5.53806 7.77092 5.55664 7.88812 5.55664 8.00033C5.5566 8.11241 5.53802 8.22894 5.50684 8.3724L5.43848 8.68783L5.7168 8.84993L10.4707 11.6165L10.75 11.7796L10.9902 11.5618C11.2639 11.3145 11.6141 11.1634 12 11.1634C12.8284 11.1634 13.5028 11.838 13.5029 12.6663C13.5029 13.4948 12.8285 14.1702 12 14.1702C11.1715 14.1702 10.4971 13.4948 10.4971 12.6663C10.4971 12.5595 10.5115 12.4478 10.5381 12.3363L10.6143 12.016L10.3301 11.8509L5.58398 9.07747L5.2998 8.91146L5.05859 9.13509C4.77429 9.3982 4.40655 9.55697 4 9.55697C3.13829 9.55697 2.44353 8.862 2.44336 8.00033C2.44336 7.13851 3.13818 6.44368 4 6.44368C4.40669 6.44368 4.77425 6.60228 5.05859 6.86556L5.2998 7.08822L5.58301 6.92318L10.2832 4.18294L10.5615 4.02083L10.4932 3.7054C10.462 3.56195 10.4434 3.44543 10.4434 3.33333C10.4434 2.47151 11.1382 1.77669 12 1.77669ZM12 11.5697C11.3885 11.5697 10.8896 12.0685 10.8896 12.68C10.8897 13.2915 11.3885 13.7904 12 13.7904C12.6115 13.7904 13.1103 13.2915 13.1104 12.68C13.1104 12.0685 12.6115 11.5697 12 11.5697ZM4 6.88997C3.38849 6.88997 2.88965 7.38881 2.88965 8.00033C2.88983 8.61169 3.3886 9.1097 4 9.1097C4.6114 9.1097 5.11017 8.61169 5.11035 8.00033C5.11035 7.38881 4.61151 6.88997 4 6.88997ZM12 2.22298C11.3885 2.22298 10.8896 2.72182 10.8896 3.33333C10.8896 3.94485 11.3885 4.44368 12 4.44368C12.6115 4.44368 13.1104 3.94485 13.1104 3.33333C13.1104 2.72182 12.6115 2.22298 12 2.22298Z" stroke="#27725B" stroke-width="0.886667"/>
</g>
<defs>
<clipPath id="clip0_0_59">
<rect width="16" height="16" fill="white"/>
</clipPath>
</defs>
</svg>
